#!OML:ASF F:\VICON\USERDATA\INSTALL\rory3\rory3.ASF
:FULLY-SPECIFIED
:DEGREES
582
root 2.37961 17.5937 20.9792 32.4501 -18.0709 -11.0013
lowerback -2.88512 0.933646 1.30736
upperback -14.1721 1.4698 2.74619
thorax -13.8691 0.718492 2.18313
lowerneck -11.7824 10.3989 3.1677
upperneck 5.14067 13.1377 3.05999
head 3.76316 6.70836 1.38251
rclavicle -1.95057e-014 -3.06128e-014
rhumerus -62.3372 -51.0507 -3.73968
rradius 11.3978
rwrist 31.24
rhand 5.76812 9.83002
rfingers 7.12502
rthumb 31.1023 -17.5519
lclavicle -1.95057e-014 -3.06128e-014
lhumerus 41.1559 -36.7753 6.78086
lradius 39.7194
lwrist -3.60162
lhand 14.4749 18.8542
lfingers 7.12502
lthumb 39.3572 44.271
rfemur -14.7225 9.03552 28.3227
rtibia 19.3236
rfoot -3.48458 -10.8834
rtoes 30.1074
lfemur -63.2331 1.83314 -6.12136
ltibia 38.5447
lfoot -30.0972 18.6355
ltoes 50.4827
583
root 2.40127 17.6447 21.1165 33.2704 -18.4432 -12.1088
lowerback -3.42574 0.952389 2.0335
upperback -13.9814 1.52628 3.08305
thorax -13.2951 0.682391 2.14584
lowerneck -12.8055 10.7933 3.45352
upperneck 4.86525 13.5691 2.98263
head 3.89006 6.91982 1.40352
rclavicle -2.37796e-014 -2.18663e-014
rhumerus -68.7181 -53.9901 6.79431
rradius 11.1504
rwrist 38.5596
rhand 4.83597 9.6398
rfingers 7.12502
rthumb 30.2135 -17.9086
lclavicle -2.37796e-014 -2.18663e-014
lhumerus 41.6964 -34.0733 4.96855
lradius 38.3794
lwrist -4.35895
lhand 13.92 20.0357
lfingers 7.12502
lthumb 38.8341 45.603
rfemur -13.4564 9.55922 28.1264
rtibia 18.1771
rfoot -1.521 -11.709
rtoes 34.1906
lfemur -62.9599 2.54126 -5.56061
ltibia 38.4981
lfoot -31.0767 17.4651
ltoes 50.8006
584
root 2.42006 17.6938 21.2438 33.9197 -19.0521 -12.7745
lowerback -3.38735 1.08701 2.18811
upperback -14.8916 1.77201 3.47907
thorax -14.4819 0.809885 2.50701
lowerneck -11.0009 10.8656 3.52202
upperneck 4.75168 13.7654 2.9215
head 3.50901 7.01336 1.25375
rclavicle 3.61043e-014 3.29983e-014
rhumerus -76.1918 -54.3354 19.6291
rradius 11.0083
rwrist 46.8096
rhand 4.35208 9.65125
rfingers 7.12502
rthumb 29.7518 -17.9807
lclavicle 3.61043e-014 3.29983e-014
lhumerus 41.4797 -33.493 4.51905
lradius 37.0864
lwrist -5.81687
lhand 13.2608 21.1331
lfingers 7.12502
lthumb 38.2121 46.8742
rfemur -12.247 9.68152 27.4971
rtibia 17.6018
rfoot -0.450329 -13.1761
rtoes 38.6091
lfemur -62.5446 3.19104 -5.5047
ltibia 38.2383
lfoot -32.0966 16.2142
ltoes 51.2983
585
root 2.43966 17.7472 21.3718 34.4444 -19.4001 -13.5347
lowerback -3.5422 1.0637 2.6011
upperback -14.8355 1.76886 3.75837
thorax -14.3181 0.776673 2.58964
lowerneck -11.7441 11.2619 3.52617
upperneck 4.61854 14.2293 3.20374
head 3.58054 7.25433 1.41989
rclavicle -1.89342e-014 2.82274e-014
rhumerus -59.6281 -47.4703 0.652944
rradius 11.848
rwrist 33.7182
rhand 3.67007 7.27482
rfingers 7.12502
rthumb 29.1007 -20.4716
lclavicle -1.89342e-014 2.82274e-014
lhumerus 41.7792 -31.2246 2.88632
lradius 35.946
lwrist -7.00789
lhand 11.7561 21.4689
lfingers 7.12502
lthumb 36.79 47.5873
rfemur -11.0405 8.7636 27.1591
rtibia 17.5711
rfoot 1.80733 -14.8969
rtoes 39.3912
lfemur -62.0205 3.6758 -5.22681
ltibia 37.8711
lfoot -32.0683 16.8467
ltoes 51.0573
586
root 2.4527 17.8143 21.4971 35.0256 -20.5915 -13.7792
lowerback -3.86403 1.15039 2.03864
upperback -14.9878 1.84917 3.8519
thorax -14.3333 0.890911 3.00817
lowerneck -12.3716 11.6003 3.7832
upperneck 4.89194 14.5768 3.4311
head 3.80057 7.44482 1.5402
rclavicle -5.889e-015 5.08889e-014
rhumerus -63.7721 -49.9128 9.08054
rradius 11.6041
rwrist 40.2595
rhand 3.15973 7.23011
rfingers 7.12502
rthumb 28.6132 -20.5995
lclavicle -5.889e-015 5.08889e-014
lhumerus 41.9458 -29.146 1.36969
lradius 34.8894
lwrist -8.46265
lhand 9.59405 20.4029
lfingers 7.12502
lthumb 34.7412 47.019
rfemur -10.209 8.77838 25.8056
rtibia 17.8086
rfoot 5.05686 -16.9698
rtoes 36.6882
lfemur -61.4054 4.57121 -5.86807
ltibia 37.4505
lfoot -32.5075 16.2948
ltoes 51.2895
587
root 2.46158 17.8858 21.6173 35.4402 -21.7722 -14.3167
lowerback -4.33279 1.30443 1.85196
upperback -14.9202 2.02617 3.95096
thorax -13.9759 1.00453 3.21006
lowerneck -12.3229 11.9029 4.0996
upperneck 4.43777 14.9345 3.48432
head 3.64878 7.62284 1.50709
rclavicle -2.64135e-014 -1.43125e-014
rhumerus -68.4479 -52.1825 17.8292
rradius 11.5098
rwrist 46.5828
rhand 2.83095 7.27585
rfingers 7.12502
rthumb 28.299 -20.6063
lclavicle -2.64135e-014 -1.43125e-014
lhumerus 41.8885 -26.4824 0.44934
lradius 33.8146
lwrist -10.4029
lhand 11.1934 21.87
lfingers 7.12502
lthumb 36.2574 48.1229
rfemur -9.10512 9.42197 24.7047
rtibia 18.2034
rfoot 9.66783 -18.4097
rtoes 29.7393
lfemur -60.5133 5.57 -6.26626
ltibia 37.0877
lfoot -33.0581 15.3734
ltoes 51.5545
588
root 2.47099 17.9562 21.752 35.5758 -22.908 -15.1862
lowerback -4.32847 1.54773 2.03533
upperback -14.9607 2.38082 4.19197
thorax -14.06 1.17234 3.35262
lowerneck -11.5917 12.0732 4.02686
upperneck 3.86752 15.216 3.72982
head 3.27726 7.76212 1.5236
rclavicle 4.92489e-014 1.98785e-015
rhumerus -69.8054 -52.5931 22.6142
rradius 11.6691
rwrist 49.9552
rhand 2.90878 7.20381
rfingers 7.12502
rthumb 28.3734 -20.666
lclavicle 4.92489e-014 1.98785e-015
lhumerus 41.5289 -23.6656 1.06277
lradius 32.4342
lwrist -13.4826
lhand 11.7696 22.1375
lfingers 7.12502
lthumb 36.8028 48.2527
rfemur -7.60165 10.0814 23.8786
rtibia 18.885
rfoot 14.0349 -19.5466
rtoes 25.598
lfemur -59.0945 6.64502 -6.3247
ltibia 36.696
lfoot -33.4331 14.8218
ltoes 51.6405
589
root 2.48159 18.0253 21.857 36.3525 -23.3034 -16.1103
lowerback -4.62688 1.70277 2.55227
upperback -15.2442 2.61729 4.45024
thorax -14.2438 1.24156 3.35187
lowerneck -11.1168 12.1555 4.05326
upperneck 3.53014 15.3521 3.87032
head 3.05835 7.82877 1.51506
rclavicle 6.41081e-014 -1.86858e-014
rhumerus -69.1612 -52.2576 24.8285
rradius 11.8255
rwrist 51.1801
rhand 3.12424 6.96494
rfingers 7.12502
rthumb 28.5793 -20.8704
lclavicle 6.41081e-014 -1.86858e-014
lhumerus 41.5388 -20.8507 1.59713
lradius 31.021
lwrist -16.2777
lhand 11.56 21.9538
lfingers 7.12502
lthumb 36.6044 48.1195
rfemur -6.92165 10.4868 23.4616
rtibia 19.8048
rfoot 17.6759 -21.0792
rtoes 24.5721
lfemur -58.6478 7.43192 -5.91566
ltibia 36.1635
lfoot -33.4321 15.5616
ltoes 51.4541
590
root 2.49248 18.0971 21.9623 36.6062 -24.1653 -16.6346
lowerback -4.56344 1.84297 2.50581
upperback -15.1994 2.80786 4.49575
thorax -14.2434 1.34223 3.41241
lowerneck -11.5764 12.33 4.45154
upperneck 3.52323 15.4897 3.88403
head 3.17465 7.90313 1.50739
rclavicle -4.09496e-014 -1.94809e-014
rhumerus -74.4096 -54.3327 33.997
rradius 11.8226
rwrist 56.6652
rhand 3.04142 6.55734
rfingers 7.12502
rthumb 28.5001 -21.2913
lclavicle -4.09496e-014 -1.94809e-014
lhumerus 41.9924 -18.8901 -0.0909633
lradius 30.2075
lwrist -16.4663
lhand 10.9174 23.014
lfingers 7.12502
lthumb 35.996 49.3315
rfemur -5.90256 10.9512 22.4583
rtibia 20.8153
rfoot 20.8408 -22.6153
rtoes 25.1576
lfemur -57.5878 8.25042 -6.05737
ltibia 35.5075
lfoot -33.5268 15.6611
ltoes 51.4171
591
root 2.50343 18.1711 22.0554 36.3799 -25.4649 -16.5136
lowerback -4.22424 1.8517 1.60546
upperback -14.7642 2.77865 4.35727
thorax -13.9379 1.42722 3.74016
lowerneck -13.0634 12.7028 4.89604
upperneck 3.67312 15.784 3.99207
head 3.53826 8.06449 1.62773
rclavicle -1.18028e-014 -9.93923e-015
rhumerus -84.954 -57.2833 48.5547
rradius 11.9241
rwrist 64.4354
rhand 2.64948 6.40377
rfingers 7.12502
rthumb 28.1256 -21.507
lclavicle -1.18028e-014 -9.93923e-015
lhumerus 42.2101 -16.1406 -1.79836
lradius 29.6049
lwrist -16.493
lhand 10.5466 24.4554
lfingers 7.12502
lthumb 35.6446 50.8584
rfemur -4.72189 11.5654 20.6809
rtibia 21.7558
rfoot 22.7226 -25.0093
rtoes 27.0704
lfemur -56.1956 8.9622 -6.93383
ltibia 34.7701
lfoot -34.0401 14.7478
ltoes 51.6749
